<?xml version="1.0" encoding="UTF-8" standalone="no"?>
<svg width="455px" height="190px" xmlns="http://www.w3.org/2000/svg" version="1.1">
    <title>Beiju.d Placeholder</title>
    <description>Created with Sketch (http://www.bohemiancoding.com/sketch)</description>
    <defs>
        <radialGradient id="gradient-1" cx="83%" cy="111%" fx="83%" fy="111%" r="133%">
            <stop offset="0%" style="stop-color:rgb(221,221,221); stop-opacity:85"></stop>
            <stop offset="100%" style="stop-color:rgb(249,249,249); stop-opacity:85"></stop>
        </radialGradient>
    </defs>
    <g fill="rgb(215,215,215)" id="Front">
        <g fill="rgb(215,215,215)" id="Rectangle 7"></g>
        <g stroke="rgb(0,0,0)" stroke-width="1" fill="rgb(255,0,0)" id="BG"></g>
        <g style="fill:url(#gradient-1)" fill="none" id="Dog"></g>
        <path id="Dog" d="M136,323 C136,323 147,310 152,301 C158,292 191,235 201,223 C210,211 232,187 252,174 C272,161 338,161 377,150 C416,138 424,86 406,74 C388,62 322,65 306,57 C290,48 283,33 271,21 C259,9 232,8 232,8 C232,8 246,81 247,105 C248,130 238,145 225,148 C212,151 193,154 179,127 C165,99 169,19 169,19 C169,19 143,28 129,46 C115,63 101,91 86,106 C71,121 8,173 -15,161 C-39,148 -4,287 -4,287 C-4,287 60,287 85,308 C109,329 136,323 136,323 L136,323 Z M221,145 C240,139 241,120 242,109 C241,83 227,8 227,8 C227,8 212,8 199,10 C185,12 173,17 173,17 C173,17 172,104 183,123 C194,142 201,147 221,145" style="fill:url(#gradient-1)" fill="none"></path>
        <path id="Dog decoration" d="" style="fill:url(#gradient-1)" fill="none"></path>
    </g>
</svg>